<svg width="1200" height="630" viewBox="0 0 1200 630" fill="none" xmlns="http://www.w3.org/2000/svg">
  <rect width="1200" height="630" fill="#06101E"/>
  <circle cx="220" cy="80" r="220" fill="#2563EB" fill-opacity="0.18"/>
  <circle cx="980" cy="40" r="180" fill="#4F46E5" fill-opacity="0.16"/>
  <circle cx="1100" cy="520" r="220" fill="#06B6D4" fill-opacity="0.10"/>
  <g transform="translate(130 165)">
    <defs>
      <linearGradient id="g" x1="20" y1="12" x2="112" y2="132" gradientUnits="userSpaceOnUse">
        <stop stop-color="#60A5FA"/>
        <stop offset="0.5" stop-color="#4F46E5"/>
        <stop offset="1" stop-color="#06B6D4"/>
      </linearGradient>
    </defs>
    <path d="M64 10C77.4 18.8 92 23.2 107.8 23.4V52.4C107.8 75.9 92.8 97.2 70.3 105.7L64 108.2L57.7 105.7C35.2 97.2 20.2 75.9 20.2 52.4V23.4C36 23.2 50.6 18.8 64 10Z" fill="url(#g)"/>
    <path d="M48 65C53.1 55.4 59.4 50.5 67 50.5C74.5 50.5 80.4 54.5 84.7 62.3" stroke="white" stroke-width="5" stroke-linecap="round"/>
    <circle cx="51.5" cy="71.2" r="3.5" fill="white"/>
    <circle cx="76.7" cy="71.2" r="3.5" fill="white"/>
    <path d="M58 82C59.9 83.8 61.8 84.5 64 84.5C66.1 84.5 68.1 83.8 70 82" stroke="white" stroke-width="4" stroke-linecap="round"/>
  </g>
  <text x="270" y="252" fill="white" font-size="64" font-family="Inter, Arial, sans-serif" font-weight="700">CivicShield AI</text>
  <text x="270" y="320" fill="#D7E3F4" font-size="30" font-family="Inter, Arial, sans-serif" font-weight="500">Trusted AI guidance for public services, grounded in official sources.</text>
  <text x="270" y="402" fill="#94A3B8" font-size="24" font-family="Inter, Arial, sans-serif">Official-source grounded • Multilingual • Security-first • Accessibility-led</text>
</svg>