<svg width="1200" height="630" viewBox="0 0 1200 630" fill="none" xmlns="http://www.w3.org/2000/svg">
  <rect width="1200" height="630" fill="#F6F8FB"/>
  <circle cx="258" cy="110" r="260" fill="#DBEAFE"/>
  <circle cx="980" cy="210" r="300" fill="#D1FAE5"/>
  <circle cx="620" cy="610" r="340" fill="#E0E7FF"/>
  <rect x="76" y="70" width="1048" height="490" rx="48" fill="white" fill-opacity="0.82" stroke="white" stroke-width="2"/>
  <path d="M180 145C203 160.5 227.2 168.4 253 169.2V213.8C253 249.9 230.2 282.4 196 294.8L180 300.6L164 294.8C129.8 282.4 107 249.9 107 213.8V169.2C132.8 168.4 157 160.5 180 145Z" fill="url(#shield)"/>
  <path d="M150 219H210" stroke="white" stroke-width="8" stroke-linecap="round"/>
  <path d="M161 206L180 190L199 206" stroke="white" stroke-width="8" stroke-linecap="round" stroke-linejoin="round"/>
  <text x="300" y="190" fill="#0F172A" font-family="Inter, ui-sans-serif, system-ui, sans-serif" font-size="42" font-weight="850" letter-spacing="-2">CivicShield AI</text>
  <text x="300" y="230" fill="#2563EB" font-family="Inter, ui-sans-serif, system-ui, sans-serif" font-size="17" font-weight="800" letter-spacing="3">PUBLIC HELP, VERIFIED</text>
  <text x="107" y="395" fill="#0F172A" font-family="Inter, ui-sans-serif, system-ui, sans-serif" font-size="72" font-weight="900" letter-spacing="-5">Find public help without getting lost.</text>
  <text x="112" y="462" fill="#475569" font-family="Inter, ui-sans-serif, system-ui, sans-serif" font-size="28" font-weight="500">Official sources • Clear next steps • Safe AI that refuses to guess</text>
  <rect x="812" y="126" width="240" height="56" rx="28" fill="#0F172A"/>
  <text x="855" y="162" fill="white" font-family="Inter, ui-sans-serif, system-ui, sans-serif" font-size="18" font-weight="800">Ask for help now</text>
  <defs>
    <linearGradient id="shield" x1="115" y1="150" x2="245" y2="292" gradientUnits="userSpaceOnUse">
      <stop stop-color="#38BDF8"/>
      <stop offset="0.5" stop-color="#2563EB"/>
      <stop offset="1" stop-color="#10B981"/>
    </linearGradient>
  </defs>
</svg>
